<svg width="80" height="80" viewBox="0 0 80 80" fill="none" xmlns="http://www.w3.org/2000/svg">
<rect width="80" height="80" rx="40" fill="#F2F2F2"/>
<path fill-rule="evenodd" clip-rule="evenodd" d="M49.3334 36.0001C49.3334 32.0001 46.8001 28.5334 43.0667 27.2001L41.3334 26.5334V34.6668C41.3334 35.4668 40.8001 36.0001 40.0001 36.0001C39.2001 36.0001 38.6667 35.4668 38.6667 34.6668V26.5334L36.9334 27.2001C33.2001 28.5334 30.6667 32.0001 30.6667 36.0001C30.6667 39.7334 32.8001 42.9334 36.0001 44.4001V53.3334H38.6667V45.3334H41.3334V53.3334H44.0001V44.4001C47.2001 42.9334 49.3334 39.7334 49.3334 36.0001ZM40.0001 42.6668C36.2667 42.6668 33.3334 39.7334 33.3334 36.0001C33.3334 33.8668 34.4001 31.8668 36.0001 30.6668V34.6668C36.0001 36.9334 37.7334 38.6668 40.0001 38.6668C42.2667 38.6668 44.0001 36.9334 44.0001 34.6668V30.6668C45.6001 31.8668 46.6667 33.8668 46.6667 36.0001C46.6667 39.7334 43.7334 42.6668 40.0001 42.6668Z" fill="#333333"/>
</svg>
