<svg width="80" height="80" viewBox="0 0 80 80" fill="none" xmlns="http://www.w3.org/2000/svg">
<rect width="80" height="80" rx="40" fill="#F2F2F2"/>
<path fill-rule="evenodd" clip-rule="evenodd" d="M40.0001 54.72C26.9334 54.72 26.6667 33.9013 26.6667 33.0072C26.6667 32.4963 26.9334 32.1132 27.3334 31.8577L39.3334 25.4716C39.7334 25.2162 40.2667 25.2162 40.6667 25.4716L52.6667 31.8577C53.0667 32.1132 53.3334 32.4963 53.3334 33.0072C53.3334 33.9013 53.2001 54.72 40.0001 54.72ZM29.4667 33.7736C29.6 37.2221 30.6667 52.1656 40 52.1656C49.3334 52.1656 50.5334 37.2221 50.6667 33.7736L40 28.1538L29.4667 33.7736ZM33.7335 41.9479L40.5335 46.8014L48.1335 35.1786L45.3335 33.3905L39.6001 42.2034L35.7335 39.3935L33.7335 41.9479Z" fill="#333333"/>
</svg>
