<svg width="80" height="80" viewBox="0 0 80 80" fill="none" xmlns="http://www.w3.org/2000/svg">
<rect width="80" height="80" rx="40" fill="#F2F2F2"/>
<path fill-rule="evenodd" clip-rule="evenodd" d="M26.6667 46.6666V31.9999C26.6667 30.5333 27.8667 29.3333 29.3334 29.3333H42.6667C44.1334 29.3333 45.3334 30.5333 45.3334 31.9999V33.3333H48.0001C50.9334 33.3333 53.3334 35.7333 53.3334 38.6666V46.6666C53.3334 47.4666 52.8001 47.9999 52.0001 47.9999H49.0667C48.5334 49.5999 47.0667 50.6666 45.3334 50.6666C43.6001 50.6666 42.1334 49.5999 41.6001 47.9999H37.0667C36.5334 49.5999 35.0667 50.6666 33.3334 50.6666C31.6001 50.6666 30.1334 49.5999 29.6001 47.9999H28.0001C27.2001 47.9999 26.6667 47.4666 26.6667 46.6666ZM42.6667 43.7333V31.9999H29.3334V45.3333H29.6001C30.1334 43.7333 31.6001 42.6666 33.3334 42.6666C35.0667 42.6666 36.5334 43.7333 37.0667 45.3333H41.6001C41.8667 44.6666 42.1334 44.1333 42.6667 43.7333ZM50.6667 45.3333H49.0667C48.5334 43.7333 47.0667 42.6666 45.3334 42.6666V35.9999H48.0001C49.4667 35.9999 50.6667 37.1999 50.6667 38.6666V45.3333ZM45.3334 45.3333C44.5334 45.3333 44.0001 45.8666 44.0001 46.6666C44.0001 47.4666 44.5334 47.9999 45.3334 47.9999C46.1334 47.9999 46.6667 47.4666 46.6667 46.6666C46.6667 45.8666 46.1334 45.3333 45.3334 45.3333ZM32.0001 46.6666C32.0001 45.8666 32.5334 45.3333 33.3334 45.3333C34.1334 45.3333 34.6667 45.8666 34.6667 46.6666C34.6667 47.4666 34.1334 47.9999 33.3334 47.9999C32.5334 47.9999 32.0001 47.4666 32.0001 46.6666ZM46.6667 39.9999H49.3334V37.3333H46.6667V39.9999Z" fill="#333333"/>
</svg>
